<svg width="231" height="24" viewBox="0 0 231 24" fill="none" xmlns="http://www.w3.org/2000/svg">
<path d="M15.0006 22.7498H9.00063C7.68063 22.7498 6.58063 22.6198 5.65063 22.3398C5.31063 22.2398 5.09063 21.9098 5.11063 21.5598C5.36063 18.5698 8.39063 16.2197 12.0006 16.2197C15.6106 16.2197 18.6306 18.5598 18.8906 21.5598C18.9206 21.9198 18.7006 22.2398 18.3506 22.3398C17.4206 22.6198 16.3206 22.7498 15.0006 22.7498ZM6.72063 21.0598C7.38063 21.1898 8.13063 21.2498 9.00063 21.2498H15.0006C15.8706 21.2498 16.6206 21.1898 17.2806 21.0598C16.7506 19.1398 14.5606 17.7197 12.0006 17.7197C9.44063 17.7197 7.25063 19.1398 6.72063 21.0598Z" fill="white"/>
<path d="M15 2H9C4 2 2 4 2 9V15C2 18.78 3.14 20.85 5.86 21.62C6.08 19.02 8.75 16.97 12 16.97C15.25 16.97 17.92 19.02 18.14 21.62C20.86 20.85 22 18.78 22 15V9C22 4 20 2 15 2ZM12 14.17C10.02 14.17 8.42 12.56 8.42 10.58C8.42 8.60002 10.02 7 12 7C13.98 7 15.58 8.60002 15.58 10.58C15.58 12.56 13.98 14.17 12 14.17Z" stroke="white" stroke-width="1.5" stroke-linecap="round" stroke-linejoin="round"/>
<path d="M11.9999 14.92C9.60992 14.92 7.66992 12.97 7.66992 10.58C7.66992 8.19002 9.60992 6.25 11.9999 6.25C14.3899 6.25 16.3299 8.19002 16.3299 10.58C16.3299 12.97 14.3899 14.92 11.9999 14.92ZM11.9999 7.75C10.4399 7.75 9.16992 9.02002 9.16992 10.58C9.16992 12.15 10.4399 13.42 11.9999 13.42C13.5599 13.42 14.8299 12.15 14.8299 10.58C14.8299 9.02002 13.5599 7.75 11.9999 7.75Z" fill="white"/>
<path d="M38.518 12.114C38.518 11.162 38.7373 10.308 39.176 9.552C39.624 8.796 40.226 8.208 40.982 7.788C41.7473 7.35867 42.5827 7.144 43.488 7.144C44.524 7.144 45.4433 7.40067 46.246 7.914C47.058 8.418 47.646 9.13667 48.01 10.07H46.092C45.84 9.55667 45.49 9.174 45.042 8.922C44.594 8.67 44.076 8.544 43.488 8.544C42.844 8.544 42.27 8.68867 41.766 8.978C41.262 9.26733 40.8653 9.68267 40.576 10.224C40.296 10.7653 40.156 11.3953 40.156 12.114C40.156 12.8327 40.296 13.4627 40.576 14.004C40.8653 14.5453 41.262 14.9653 41.766 15.264C42.27 15.5533 42.844 15.698 43.488 15.698C44.076 15.698 44.594 15.572 45.042 15.32C45.49 15.068 45.84 14.6853 46.092 14.172H48.01C47.646 15.1053 47.058 15.824 46.246 16.328C45.4433 16.832 44.524 17.084 43.488 17.084C42.5733 17.084 41.738 16.874 40.982 16.454C40.226 16.0247 39.624 15.432 39.176 14.676C38.7373 13.92 38.518 13.066 38.518 12.114ZM56.7241 9.286V17H55.1281V16.09C54.8761 16.4073 54.5448 16.6593 54.1341 16.846C53.7328 17.0233 53.3035 17.112 52.8461 17.112C52.2395 17.112 51.6935 16.986 51.2081 16.734C50.7321 16.482 50.3541 16.1087 50.0741 15.614C49.8035 15.1193 49.6681 14.522 49.6681 13.822V9.286H51.2501V13.584C51.2501 14.2747 51.4228 14.8067 51.7681 15.18C52.1135 15.544 52.5848 15.726 53.1821 15.726C53.7795 15.726 54.2508 15.544 54.5961 15.18C54.9508 14.8067 55.1281 14.2747 55.1281 13.584V9.286H56.7241ZM61.4899 17.126C60.8833 17.126 60.3373 17.0187 59.8519 16.804C59.3759 16.58 58.9979 16.2813 58.7179 15.908C58.4379 15.5253 58.2886 15.1007 58.2699 14.634H59.9219C59.9499 14.9607 60.1039 15.236 60.3839 15.46C60.6733 15.6747 61.0326 15.782 61.4619 15.782C61.9099 15.782 62.2553 15.698 62.4979 15.53C62.7499 15.3527 62.8759 15.1287 62.8759 14.858C62.8759 14.5687 62.7359 14.354 62.4559 14.214C62.1853 14.074 61.7513 13.92 61.1539 13.752C60.5753 13.5933 60.1039 13.4393 59.7399 13.29C59.3759 13.1407 59.0586 12.912 58.7879 12.604C58.5266 12.296 58.3959 11.89 58.3959 11.386C58.3959 10.9753 58.5173 10.602 58.7599 10.266C59.0026 9.92067 59.3479 9.65 59.7959 9.454C60.2533 9.258 60.7759 9.16 61.3639 9.16C62.2413 9.16 62.9459 9.384 63.4779 9.832C64.0193 10.2707 64.3086 10.8727 64.3459 11.638H62.7499C62.7219 11.2927 62.5819 11.0173 62.3299 10.812C62.0779 10.6067 61.7373 10.504 61.3079 10.504C60.8879 10.504 60.5659 10.5833 60.3419 10.742C60.1179 10.9007 60.0059 11.1107 60.0059 11.372C60.0059 11.5773 60.0806 11.75 60.2299 11.89C60.3793 12.03 60.5613 12.142 60.7759 12.226C60.9906 12.3007 61.3079 12.3987 61.7279 12.52C62.2879 12.6693 62.7453 12.8233 63.0999 12.982C63.4639 13.1313 63.7766 13.3553 64.0379 13.654C64.2993 13.9527 64.4346 14.3493 64.4439 14.844C64.4439 15.2827 64.3226 15.6747 64.0799 16.02C63.8373 16.3653 63.4919 16.636 63.0439 16.832C62.6053 17.028 62.0873 17.126 61.4899 17.126ZM67.8904 10.588V14.858C67.8904 15.1473 67.9558 15.3573 68.0864 15.488C68.2264 15.6093 68.4598 15.67 68.7864 15.67H69.7664V17H68.5064C67.7878 17 67.2371 16.832 66.8544 16.496C66.4718 16.16 66.2804 15.614 66.2804 14.858V10.588H65.3704V9.286H66.2804V7.368H67.8904V9.286H69.7664V10.588H67.8904ZM74.4434 17.126C73.7154 17.126 73.0574 16.9627 72.4694 16.636C71.8814 16.3 71.4194 15.8333 71.0834 15.236C70.7474 14.6293 70.5794 13.9293 70.5794 13.136C70.5794 12.352 70.7521 11.6567 71.0974 11.05C71.4428 10.4433 71.9141 9.97667 72.5114 9.65C73.1088 9.32333 73.7761 9.16 74.5134 9.16C75.2508 9.16 75.9181 9.32333 76.5154 9.65C77.1128 9.97667 77.5841 10.4433 77.9294 11.05C78.2748 11.6567 78.4474 12.352 78.4474 13.136C78.4474 13.92 78.2701 14.6153 77.9154 15.222C77.5608 15.8287 77.0754 16.3 76.4594 16.636C75.8528 16.9627 75.1808 17.126 74.4434 17.126ZM74.4434 15.74C74.8541 15.74 75.2368 15.642 75.5914 15.446C75.9554 15.25 76.2494 14.956 76.4734 14.564C76.6974 14.172 76.8094 13.696 76.8094 13.136C76.8094 12.576 76.7021 12.1047 76.4874 11.722C76.2728 11.33 75.9881 11.036 75.6334 10.84C75.2788 10.644 74.8961 10.546 74.4854 10.546C74.0748 10.546 73.6921 10.644 73.3374 10.84C72.9921 11.036 72.7168 11.33 72.5114 11.722C72.3061 12.1047 72.2034 12.576 72.2034 13.136C72.2034 13.9667 72.4134 14.6107 72.8334 15.068C73.2628 15.516 73.7994 15.74 74.4434 15.74ZM89.2232 9.16C89.8298 9.16 90.3712 9.286 90.8472 9.538C91.3325 9.79 91.7105 10.1633 91.9812 10.658C92.2612 11.1527 92.4012 11.75 92.4012 12.45V17H90.8192V12.688C90.8192 11.9973 90.6465 11.47 90.3012 11.106C89.9558 10.7327 89.4845 10.546 88.8872 10.546C88.2898 10.546 87.8138 10.7327 87.4592 11.106C87.1138 11.47 86.9412 11.9973 86.9412 12.688V17H85.3592V12.688C85.3592 11.9973 85.1865 11.47 84.8412 11.106C84.4958 10.7327 84.0245 10.546 83.4272 10.546C82.8298 10.546 82.3538 10.7327 81.9992 11.106C81.6538 11.47 81.4812 11.9973 81.4812 12.688V17H79.8852V9.286H81.4812V10.168C81.7425 9.85067 82.0738 9.60333 82.4752 9.426C82.8765 9.24867 83.3058 9.16 83.7632 9.16C84.3792 9.16 84.9298 9.29067 85.4152 9.552C85.9005 9.81333 86.2738 10.1913 86.5352 10.686C86.7685 10.2193 87.1325 9.85067 87.6272 9.58C88.1218 9.3 88.6538 9.16 89.2232 9.16ZM101.362 12.954C101.362 13.2433 101.343 13.5047 101.306 13.738H95.412C95.4587 14.354 95.6874 14.8487 96.098 15.222C96.5087 15.5953 97.0127 15.782 97.61 15.782C98.4687 15.782 99.0754 15.4227 99.43 14.704H101.152C100.919 15.4133 100.494 15.9967 99.878 16.454C99.2714 16.902 98.5154 17.126 97.61 17.126C96.8727 17.126 96.21 16.9627 95.622 16.636C95.0434 16.3 94.586 15.8333 94.25 15.236C93.9234 14.6293 93.76 13.9293 93.76 13.136C93.76 12.3427 93.9187 11.6473 94.236 11.05C94.5627 10.4433 95.0154 9.97667 95.594 9.65C96.182 9.32333 96.854 9.16 97.61 9.16C98.338 9.16 98.9867 9.31867 99.556 9.636C100.125 9.95333 100.569 10.4013 100.886 10.98C101.203 11.5493 101.362 12.2073 101.362 12.954ZM99.696 12.45C99.6867 11.862 99.4767 11.3907 99.066 11.036C98.6554 10.6813 98.1467 10.504 97.54 10.504C96.9894 10.504 96.518 10.6813 96.126 11.036C95.734 11.3813 95.5007 11.8527 95.426 12.45H99.696ZM104.389 10.406C104.622 10.014 104.93 9.71067 105.313 9.496C105.705 9.272 106.167 9.16 106.699 9.16V10.812H106.293C105.667 10.812 105.191 10.9707 104.865 11.288C104.547 11.6053 104.389 12.156 104.389 12.94V17H102.793V9.286H104.389V10.406ZM110.826 17.126C110.219 17.126 109.673 17.0187 109.188 16.804C108.712 16.58 108.334 16.2813 108.054 15.908C107.774 15.5253 107.624 15.1007 107.606 14.634H109.258C109.286 14.9607 109.44 15.236 109.72 15.46C110.009 15.6747 110.368 15.782 110.798 15.782C111.246 15.782 111.591 15.698 111.834 15.53C112.086 15.3527 112.212 15.1287 112.212 14.858C112.212 14.5687 112.072 14.354 111.792 14.214C111.521 14.074 111.087 13.92 110.49 13.752C109.911 13.5933 109.44 13.4393 109.076 13.29C108.712 13.1407 108.394 12.912 108.124 12.604C107.862 12.296 107.732 11.89 107.732 11.386C107.732 10.9753 107.853 10.602 108.096 10.266C108.338 9.92067 108.684 9.65 109.132 9.454C109.589 9.258 110.112 9.16 110.7 9.16C111.577 9.16 112.282 9.384 112.814 9.832C113.355 10.2707 113.644 10.8727 113.682 11.638H112.086C112.058 11.2927 111.918 11.0173 111.666 10.812C111.414 10.6067 111.073 10.504 110.644 10.504C110.224 10.504 109.902 10.5833 109.678 10.742C109.454 10.9007 109.342 11.1107 109.342 11.372C109.342 11.5773 109.416 11.75 109.566 11.89C109.715 12.03 109.897 12.142 110.112 12.226C110.326 12.3007 110.644 12.3987 111.064 12.52C111.624 12.6693 112.081 12.8233 112.436 12.982C112.8 13.1313 113.112 13.3553 113.374 13.654C113.635 13.9527 113.77 14.3493 113.78 14.844C113.78 15.2827 113.658 15.6747 113.416 16.02C113.173 16.3653 112.828 16.636 112.38 16.832C111.941 17.028 111.423 17.126 110.826 17.126Z" fill="white"/>
<path d="M221 16L225 12L221 8" stroke="white" stroke-width="2" stroke-linecap="round" stroke-linejoin="round"/>
</svg>
